<svg xmlns="http://www.w3.org/2000/svg" width="1200" height="630" viewBox="0 0 1200 630">
  <defs>
    <linearGradient id="page" x1="0" y1="0" x2="0" y2="1">
      <stop offset="0" stop-color="#181d24"/>
      <stop offset="1" stop-color="#0e1114"/>
    </linearGradient>
    <radialGradient id="glow" cx="0.5" cy="0.42" r="0.75">
      <stop offset="0" stop-color="#5b9dff" stop-opacity="0.14"/>
      <stop offset="0.55" stop-color="#5b9dff" stop-opacity="0.05"/>
      <stop offset="1" stop-color="#5b9dff" stop-opacity="0"/>
    </radialGradient>
    <linearGradient id="tile" x1="0" y1="0" x2="0" y2="1">
      <stop offset="0" stop-color="#1d232c"/>
      <stop offset="1" stop-color="#12161b"/>
    </linearGradient>
    <linearGradient id="rec" x1="0" y1="0" x2="0" y2="1">
      <stop offset="0" stop-color="#ff5a50"/>
      <stop offset="1" stop-color="#d03a31"/>
    </linearGradient>
    <clipPath id="sq"><rect width="1024" height="1024" rx="229" ry="229"/></clipPath>
  </defs>

  <rect width="1200" height="630" fill="url(#page)"/>
  <rect width="1200" height="630" fill="url(#glow)"/>

  <g transform="translate(220,208) scale(0.2)">
    <g clip-path="url(#sq)">
      <rect width="1024" height="1024" fill="url(#tile)"/>
      <g fill="none" stroke="#5b9dff" stroke-width="58" stroke-linecap="round">
        <path d="M 376 226 H 310 A 84 84 0 0 0 226 310 V 376"/>
        <path d="M 648 226 H 714 A 84 84 0 0 1 798 310 V 376"/>
        <path d="M 376 798 H 310 A 84 84 0 0 1 226 714 V 648"/>
        <path d="M 648 798 H 714 A 84 84 0 0 0 798 714 V 648"/>
      </g>
      <circle cx="512" cy="512" r="132" fill="url(#rec)"/>
    </g>
    <rect width="1024" height="1024" rx="229" ry="229" fill="none" stroke="rgba(255,255,255,0.16)" stroke-width="8"/>
  </g>

  <text x="478" y="352" font-family="Helvetica Neue, Helvetica, Arial, sans-serif" font-weight="700" font-size="118" letter-spacing="-3" fill="#eef2f3">Autocuts</text>

  <text x="600" y="492" text-anchor="middle" font-family="Helvetica Neue, Helvetica, Arial, sans-serif" font-weight="500" font-size="34" letter-spacing="0" fill="#9fabb6">Mac screen recorder with automatic zoom</text>
</svg>
